<?xml version="1.0" standalone="no"?>
<!DOCTYPE svg PUBLIC "-//W3C//DTD SVG 20010904//EN"
 "http://www.w3.org/TR/2001/REC-SVG-20010904/DTD/svg10.dtd">
<svg version="1.0" xmlns="http://www.w3.org/2000/svg"
 width="391.000000pt" height="391.000000pt" viewBox="0 0 391.000000 391.000000"
 preserveAspectRatio="xMidYMid meet">
<metadata>
Created by potrace 1.14, written by Peter Selinger 2001-2017
</metadata>
<g transform="translate(0.000000,391.000000) scale(0.100000,-0.100000)"
fill="#000000" stroke="none">
<path d="M1798 3905 c-1 -1 -34 -6 -73 -10 -38 -3 -100 -13 -137 -21 -37 -7
-80 -16 -95 -19 -85 -16 -286 -91 -414 -155 -87 -43 -267 -154 -301 -185 -13
-11 -41 -33 -63 -50 -60 -45 -224 -211 -287 -290 -214 -272 -344 -567 -405
-920 -18 -102 -25 -408 -12 -500 4 -33 11 -85 15 -115 3 -30 8 -58 10 -61 2
-3 6 -21 9 -40 20 -114 108 -362 169 -472 14 -26 38 -68 52 -94 119 -215 313
-427 569 -621 39 -30 164 -102 244 -142 179 -89 409 -163 571 -185 30 -4 64
-9 75 -12 47 -11 386 -10 471 2 152 21 355 72 439 109 17 8 41 17 53 21 31 9
194 88 256 124 60 35 213 142 269 189 77 65 224 219 285 299 283 372 415 771
406 1228 -3 169 -6 215 -18 277 -3 18 -8 44 -11 58 -19 102 -72 284 -101 347
-7 17 -14 34 -14 37 0 19 -119 241 -174 326 -78 119 -152 209 -260 315 -206
203 -400 325 -721 453 -59 23 -269 77 -338 87 -27 4 -59 9 -70 11 -25 6 -393
14 -399 9z"/>
</g>
</svg>
